<svg id="Effect" enable-background="new 0 0 36 36" height="512" viewBox="0 0 36 36" width="512" xmlns="http://www.w3.org/2000/svg"><g><path d="m31.833 8.377c0 6.917 3.583 11.667 3.583 15s-1.916 10.333-17.249 10.333-17.584-9.417-17.584-13.083c0-17.167 31.25-24.5 31.25-12.25z" fill="#efefef"/></g><g><path d="m20.25 9.75h-2v1c0 .552-.448 1-1 1h-5.5c-.552 0-1-.448-1-1v-1h-2c-1.1 0-2 .9-2 2v12.5c0 1.1.9 2 2 2h11.5c1.1 0 2-.9 2-2v-12.5c0-1.1-.9-2-2-2z" fill="#f3f3f1"/></g><g><path d="m18.25 8.75v2c0 .552-.448 1-1 1h-5.5c-.552 0-1-.448-1-1v-2h1.75c0-1.1.9-2 2-2s2 .9 2 2z" fill="#2fdf84"/></g><g><path d="m20 28.25c-1.245 0-2.25-1.005-2.25-2.25s1.005-2.25 2.25-2.25h.04c.24-1.7 1.695-3 3.46-3 1.4 0 2.61.82 3.165 2.01 1.445.08 2.585 1.275 2.585 2.74 0 1.52-1.23 2.75-2.75 2.75z" fill="#2fdf84"/></g><g><path d="m20.5 10.75v-.975c-.083-.011-.164-.025-.25-.025h-2v1c0 .552-.448 1-1 1h2.25c.552 0 1-.448 1-1z" fill="#d5dbe1"/></g><g><path d="m9 24.25v-12.5c0-1.014.768-1.849 1.75-1.975v-.025h-2c-1.1 0-2 .9-2 2v12.5c0 1.1.9 2 2 2h2.25c-1.1 0-2-.9-2-2z" fill="#d5dbe1"/></g><g><path d="m13 10.75v-2h1.75c0-.683.348-1.289.875-1.65-.321-.22-.708-.35-1.125-.35-1.1 0-2 .9-2 2h-1.75v2c0 .552.448 1 1 1h2.25c-.552 0-1-.448-1-1z" fill="#00b871"/></g><g><path d="m20 26c0-1.245 1.005-2.25 2.25-2.25h.04c.186-1.321 1.11-2.391 2.339-2.807-.355-.121-.733-.193-1.129-.193-1.765 0-3.22 1.3-3.46 3h-.04c-1.245 0-2.25 1.005-2.25 2.25s1.005 2.25 2.25 2.25h2.25c-1.245 0-2.25-1.005-2.25-2.25z" fill="#00b871"/></g><g><path d="m26.5 29h-6.5c-1.654 0-3-1.346-3-3 0-1.457 1.044-2.676 2.424-2.944.52-1.779 2.178-3.056 4.076-3.056 1.498 0 2.885.797 3.643 2.062 1.633.299 2.857 1.733 2.857 3.438 0 1.93-1.57 3.5-3.5 3.5zm-3-7.5c-1.36 0-2.528 1.013-2.717 2.354-.052.37-.369.646-.743.646-.867 0-1.54.673-1.54 1.5s.673 1.5 1.5 1.5h6.5c1.103 0 2-.897 2-2 0-1.059-.824-1.933-1.876-1.991-.276-.016-.521-.182-.638-.432-.448-.958-1.424-1.577-2.486-1.577z"/></g><g><path d="m14.76 27h-6.01c-1.516 0-2.75-1.233-2.75-2.75v-12.5c0-1.517 1.234-2.75 2.75-2.75h1.88v1.5h-1.88c-.689 0-1.25.561-1.25 1.25v12.5c0 .689.561 1.25 1.25 1.25h6.01z"/></g><g><path d="m23 17.87h-1.5v-6.12c0-.689-.561-1.25-1.25-1.25h-1.87v-1.5h1.87c1.516 0 2.75 1.233 2.75 2.75z"/></g><g><path d="m17.25 12.5h-5.5c-.965 0-1.75-.785-1.75-1.75v-2c0-.414.336-.75.75-.75h1.104c.327-1.153 1.39-2 2.646-2s2.319.847 2.646 2h1.104c.414 0 .75.336.75.75v2c0 .965-.785 1.75-1.75 1.75zm-5.75-3v1.25c0 .138.112.25.25.25h5.5c.138 0 .25-.112.25-.25v-1.25h-1c-.414 0-.75-.336-.75-.75 0-.689-.561-1.25-1.25-1.25s-1.25.561-1.25 1.25c0 .414-.336.75-.75.75z"/></g><g><path d="m9.75 14h9.5v1.5h-9.5z"/></g><g><path d="m9.75 17h9.5v1.5h-9.5z"/></g><g><path d="m9.75 20h8.29v1.5h-8.29z"/></g><g><path d="m22.25 5.75c-.827 0-1.5-.673-1.5-1.5s.673-1.5 1.5-1.5 1.5.673 1.5 1.5-.673 1.5-1.5 1.5zm0-2c-.276 0-.5.225-.5.5s.224.5.5.5.5-.225.5-.5-.224-.5-.5-.5z" fill="#a4afc1"/></g><g><path d="m31.75 25.375h1v2h-1z" fill="#a4afc1"/></g><g><path d="m31.75 19.625h1v2h-1z" fill="#a4afc1"/></g><g><path d="m34 23.125h2v1h-2z" fill="#a4afc1"/></g></svg>